Coordinates
version=1
nRows=35
nColumns=36
inDegrees=yes
inDegrees=no

Units are S.I. units (second, meters, Newtons, ...)
If the header above contains a line with 'inDegrees', this indicates whether rotational values are in degrees (yes) or radians (no).

endheader
time	pelvis_tilt	pelvis_list	pelvis_rotation	pelvis_tx	pelvis_ty	pelvis_tz	hip_flexion_r	hip_adduction_r	hip_rotation_r	knee_angle_r	knee_angle_r_beta	ankle_angle_r	subtalar_angle_r	mtp_angle_r	hip_flexion_l	hip_adduction_l	hip_rotation_l	knee_angle_l	knee_angle_l_beta	ankle_angle_l	subtalar_angle_l	mtp_angle_l	lumbar_extension	lumbar_bending	lumbar_rotation	arm_flex_r	arm_add_r	arm_rot_r	elbow_flex_r	pro_sup_r	arm_flex_l	arm_add_l	arm_rot_l	elbow_flex_l	pro_sup_l
11.766667 -0.004791 -0.232197 -0.117081 -0.005358 0.008695 -0.006562 1.718029 -0.012806 -0.307825 1.326230 0.023147 0.414767 0.255572 -0.130900 1.805630 0.026200 0.222648 1.326728 0.023156 0.405052 -0.086301 -0.130900 -0.861476 -0.054251 -0.262227 2.439430 0.184424 0.675830 0.973781 1.595171 1.498922 -0.532631 0.418496 0.699176 0.983405
11.783333 -0.024443 -0.227194 -0.110082 -0.005331 0.008647 -0.006631 1.739168 -0.026024 -0.309343 1.332854 0.023263 0.355459 0.151414 -0.130900 1.821796 0.035782 0.217766 1.323828 0.023105 0.345150 -0.102625 -0.130900 -0.876214 -0.064370 -0.220154 2.415715 0.188636 0.620545 0.931580 1.546991 1.436893 -0.467426 0.348436 0.722182 1.020435
11.800000 -0.039956 -0.234567 -0.087224 -0.004986 0.008663 -0.006440 1.752570 -0.043069 -0.313619 1.344428 0.023465 0.351103 0.132667 -0.130900 1.839910 0.043801 0.209095 1.322497 0.023082 0.296736 -0.144737 -0.130900 -0.889593 -0.067570 -0.183961 2.376459 0.186760 0.551353 0.927636 1.497687 1.373468 -0.409839 0.292118 0.745634 1.045879
11.816667 -0.054759 -0.248814 -0.067837 -0.004506 0.008606 -0.006387 1.777405 -0.061505 -0.331809 1.391456 0.024285 0.397847 0.127350 -0.130900 1.860572 0.048711 0.205166 1.336603 0.023328 0.315990 -0.151824 -0.130900 -0.885035 -0.059355 -0.148794 2.314496 0.193859 0.498514 0.953341 1.469574 1.263692 -0.370208 0.214458 0.799498 1.053090
11.833333 -0.058477 -0.249999 -0.058506 -0.004708 0.008242 -0.006421 1.807497 -0.076172 -0.331770 1.421023 0.024802 0.466616 0.201876 -0.130900 1.886932 0.042412 0.182981 1.350727 0.023575 0.329743 -0.138302 -0.130900 -0.885938 -0.072167 -0.108263 2.278563 0.179722 0.473077 0.953039 1.421396 1.186439 -0.324810 0.173193 0.843887 1.093390
11.850000 -0.064208 -0.258671 -0.045994 -0.004308 0.008474 -0.006325 1.823416 -0.085222 -0.326908 1.460447 0.025490 0.431000 0.236538 -0.130900 1.907681 0.034030 0.168928 1.378151 0.024053 0.328993 -0.177588 -0.130900 -0.887358 -0.076295 -0.075666 2.225275 0.175314 0.454141 0.996591 1.410583 1.090955 -0.301044 0.130056 0.897760 1.111155
11.866667 -0.065006 -0.259125 -0.035557 -0.004597 0.008178 -0.006316 1.833753 -0.087926 -0.318107 1.460936 0.025498 0.448051 0.254595 -0.130900 1.920273 0.023969 0.141188 1.382684 0.024132 0.315131 -0.171855 -0.130900 -0.892848 -0.086947 -0.037996 2.197355 0.156242 0.459706 1.008757 1.391540 1.041053 -0.275589 0.129858 0.929518 1.148204
11.883333 -0.053071 -0.265679 -0.014421 -0.004490 0.008293 -0.006288 1.830390 -0.099021 -0.305807 1.471745 0.025687 0.431002 0.253607 -0.130900 1.920836 0.021300 0.119142 1.384551 0.024165 0.270779 -0.191244 -0.130900 -0.914181 -0.091468 0.001015 2.188283 0.132746 0.471515 0.993818 1.392281 1.002586 -0.255129 0.149533 0.943453 1.161357
11.900000 -0.051221 -0.270840 -0.005722 -0.004523 0.008324 -0.006292 1.827154 -0.100834 -0.303685 1.471267 0.025678 0.424630 0.241933 -0.130900 1.917599 0.012509 0.103426 1.374518 0.023990 0.252613 -0.170929 -0.130900 -0.925154 -0.096809 0.040107 2.167745 0.113920 0.482491 0.990426 1.395623 0.968152 -0.240288 0.165546 0.959839 1.175325
11.916667 -0.035817 -0.272957 0.019977 -0.004570 0.008351 -0.006355 1.811575 -0.116700 -0.292122 1.465827 0.025584 0.405086 0.246774 -0.130900 1.903168 0.018160 0.080094 1.359538 0.023728 0.219556 -0.157712 -0.130900 -0.946139 -0.090185 0.071242 2.140045 0.090731 0.493065 0.983434 1.399058 0.946439 -0.220401 0.172960 0.959583 1.179584
11.933333 -0.022548 -0.268585 0.038393 -0.004781 0.008297 -0.006449 1.798449 -0.127756 -0.280536 1.448173 0.025275 0.392164 0.242923 -0.130900 1.887304 0.025280 0.056548 1.335737 0.023313 0.172701 -0.142261 -0.130900 -0.962464 -0.083945 0.112700 2.125129 0.064865 0.508278 0.961526 1.400177 0.928804 -0.189290 0.192313 0.948241 1.190782
11.950000 -0.008514 -0.254637 0.049774 -0.004712 0.008507 -0.006678 1.781206 -0.138247 -0.257102 1.442893 0.025183 0.386262 0.232561 -0.130900 1.850623 0.034819 0.034856 1.300101 0.022691 0.151555 -0.134173 -0.130900 -0.983666 -0.078393 0.145943 2.096378 0.049799 0.513858 0.944863 1.399842 0.879333 -0.148900 0.177762 0.947215 1.191633
11.966667 0.014883 -0.235484 0.063986 -0.004885 0.008690 -0.006790 1.741611 -0.147724 -0.233337 1.416761 0.024727 0.393581 0.202161 -0.130900 1.796053 0.040999 0.009121 1.259793 0.021988 0.130609 -0.113466 -0.130900 -1.014228 -0.069967 0.169946 2.060133 0.041459 0.517417 0.928987 1.393315 0.823121 -0.113953 0.148994 0.953047 1.202084
11.983333 0.036758 -0.210867 0.068993 -0.005131 0.008958 -0.006832 1.690055 -0.140121 -0.202726 1.362822 0.023786 0.403620 0.176684 -0.130900 1.729209 0.046289 -0.011260 1.202791 0.020993 0.126975 -0.111774 -0.130900 -1.050962 -0.072972 0.190495 2.020630 0.037005 0.516155 0.931111 1.378875 0.772390 -0.080594 0.119158 0.959047 1.211177
12.000000 0.060622 -0.187429 0.073130 -0.005467 0.008968 -0.006813 1.647374 -0.128981 -0.178538 1.303698 0.022754 0.398886 0.111491 -0.130900 1.669975 0.054304 -0.022034 1.146790 0.020015 0.132416 -0.092836 -0.130900 -1.084987 -0.074883 0.221359 1.987884 0.024372 0.525446 0.914806 1.327111 0.723567 -0.053622 0.107030 0.974612 1.198695
12.016667 0.085358 -0.166336 0.080392 -0.005929 0.009070 -0.006857 1.601269 -0.119598 -0.148966 1.231959 0.021502 0.383233 0.140650 -0.130900 1.614978 0.068543 -0.029844 1.087637 0.018983 0.094345 -0.119278 -0.130900 -1.120566 -0.075379 0.252822 1.974206 0.000572 0.547720 0.886792 1.287870 0.694128 -0.032307 0.119911 0.982268 1.217979
12.033333 0.110764 -0.153618 0.090010 -0.006098 0.009192 -0.006908 1.550489 -0.109872 -0.130842 1.167635 0.020379 0.397605 0.130286 -0.130900 1.559122 0.088308 -0.028828 1.032200 0.018015 0.083558 -0.108663 -0.130900 -1.147238 -0.065894 0.277399 1.938889 -0.017742 0.564261 0.884058 1.278064 0.657727 -0.028939 0.142335 0.979769 1.219061
12.050000 0.141371 -0.143196 0.096478 -0.006197 0.009431 -0.006974 1.490302 -0.096852 -0.116530 1.118830 0.019527 0.418997 0.131287 -0.130900 1.489354 0.105172 -0.020792 0.978109 0.017071 0.110693 -0.061388 -0.130900 -1.175565 -0.055807 0.293613 1.880540 -0.022427 0.582271 0.869589 1.250470 0.601380 -0.032025 0.149687 0.985855 1.207380
12.066667 0.172882 -0.126550 0.099507 -0.006557 0.009494 -0.006971 1.439125 -0.082353 -0.094615 1.073650 0.018739 0.456721 0.181785 -0.130900 1.418767 0.117834 -0.012687 0.926556 0.016171 0.177547 0.033538 -0.130900 -1.193458 -0.053420 0.309786 1.826274 -0.039462 0.595136 0.844256 1.208388 0.554763 -0.038197 0.174252 0.983954 1.189902
12.083333 0.203773 -0.109456 0.096903 -0.006848 0.009589 -0.006986 1.389503 -0.066049 -0.068501 1.024131 0.017874 0.463816 0.217338 -0.130900 1.350709 0.131071 0.006688 0.875811 0.015286 0.261918 0.119284 -0.130900 -1.209932 -0.056293 0.322970 1.771303 -0.054986 0.606813 0.828250 1.186719 0.504441 -0.050843 0.195031 0.982602 1.182007
12.100000 0.224275 -0.097346 0.099671 -0.007080 0.009386 -0.006871 1.368539 -0.054938 -0.047522 0.991554 0.017306 0.498887 0.254507 -0.130900 1.314757 0.150492 0.046003 0.845122 0.014750 0.355865 0.191664 -0.130900 -1.203501 -0.051117 0.346347 1.716218 -0.072432 0.628273 0.804199 1.164119 0.444197 -0.080487 0.231067 1.002473 1.169903
12.116667 0.245407 -0.093932 0.096464 -0.007267 0.009402 -0.006857 1.340365 -0.036212 -0.035866 0.953155 0.016636 0.508795 0.251740 -0.130900 1.280404 0.168215 0.102217 0.814901 0.014223 0.477595 0.276875 -0.130900 -1.194540 -0.043435 0.365989 1.657208 -0.081890 0.659704 0.766819 1.138954 0.398540 -0.124786 0.289596 0.996808 1.137869
12.133333 0.263992 -0.088868 0.092526 -0.007180 0.009604 -0.006888 1.311810 -0.021735 -0.025385 0.940933 0.016422 0.527010 0.240546 -0.130900 1.242046 0.184102 0.153740 0.789638 0.013782 0.563514 0.298191 -0.130900 -1.185098 -0.039156 0.372062 1.577018 -0.084246 0.678466 0.742266 1.133489 0.348510 -0.171447 0.342021 0.972047 1.115774
12.150000 0.288867 -0.084497 0.088718 -0.007412 0.009647 -0.006898 1.272440 -0.008384 -0.011387 0.914589 0.015963 0.517610 0.238548 -0.130900 1.202159 0.189388 0.179369 0.766249 0.013374 0.595957 0.333881 -0.130900 -1.179089 -0.035843 0.373463 1.500403 -0.087587 0.702145 0.725576 1.124707 0.261501 -0.213562 0.328933 1.009607 1.084882
12.166667 0.310109 -0.079792 0.095669 -0.007497 0.009770 -0.006814 1.236122 -0.001436 0.002123 0.885613 0.015457 0.507635 0.240515 -0.130900 1.165827 0.196405 0.197073 0.739892 0.012914 0.588020 0.335701 -0.130900 -1.167878 -0.030399 0.374668 1.427599 -0.100067 0.704582 0.712618 1.122751 0.200531 -0.256487 0.334054 1.013009 1.082183
12.183333 0.330279 -0.069945 0.102828 -0.007478 0.009831 -0.006793 1.205137 -0.001104 0.010322 0.874718 0.015267 0.499997 0.231229 -0.130900 1.130274 0.206372 0.206145 0.715128 0.012481 0.568740 0.327903 -0.130900 -1.157747 -0.028617 0.361203 1.370067 -0.102117 0.686381 0.703517 1.122061 0.130233 -0.304398 0.319472 1.030865 1.041455
12.200000 0.342546 -0.070931 0.099107 -0.007623 0.009754 -0.006770 1.191620 0.009347 0.013330 0.863559 0.015072 0.506611 0.218109 -0.130900 1.115422 0.206265 0.221758 0.702117 0.012254 0.538945 0.297465 -0.130900 -1.131031 -0.025884 0.360592 1.328931 -0.114889 0.671144 0.705118 1.119695 0.060200 -0.353511 0.313862 1.060889 1.034978
12.216667 0.355686 -0.073002 0.087776 -0.007722 0.009742 -0.006847 1.174930 0.018466 0.017036 0.846653 0.014777 0.515917 0.226374 -0.130900 1.102370 0.208318 0.240707 0.695915 0.012146 0.500575 0.221703 -0.130900 -1.105391 -0.021127 0.353668 1.314731 -0.124937 0.672603 0.701095 1.128271 -0.004162 -0.392750 0.310005 1.089924 1.014460
12.233333 0.365546 -0.077342 0.077035 -0.007696 0.009842 -0.006852 1.162586 0.029052 0.013101 0.841998 0.014696 0.510112 0.214652 -0.130900 1.089389 0.202322 0.254422 0.691154 0.012063 0.474865 0.195939 -0.130900 -1.077069 -0.015181 0.354557 1.304787 -0.145189 0.663301 0.714817 1.120640 -0.026015 -0.429739 0.303316 1.141578 1.021085
12.250000 0.372492 -0.084445 0.071272 -0.007800 0.009724 -0.006740 1.159011 0.036429 0.001019 0.829606 0.014479 0.504281 0.230700 -0.130900 1.099971 0.191651 0.246457 0.715572 0.012489 0.450852 0.172170 -0.130900 -1.052443 -0.006185 0.349023 1.335620 -0.154192 0.670127 0.719514 1.134987 -0.032358 -0.471713 0.289834 1.206979 1.028948
12.266667 0.377689 -0.090912 0.071617 -0.007888 0.009927 -0.006703 1.144581 0.045094 0.000806 0.806164 0.014070 0.465275 0.245609 -0.130900 1.098913 0.184163 0.240997 0.726642 0.012682 0.419942 0.108895 -0.130900 -1.030709 0.002983 0.337292 1.367818 -0.162070 0.662988 0.726804 1.161196 -0.008830 -0.515329 0.300297 1.247488 1.028723
12.283333 0.375521 -0.100468 0.077733 -0.007794 0.009913 -0.006578 1.139044 0.055558 -0.007124 0.793019 0.013841 0.457434 0.268127 -0.130900 1.106474 0.174427 0.232886 0.743001 0.012968 0.412119 0.087018 -0.130900 -0.998439 0.012777 0.319521 1.407819 -0.153621 0.657280 0.723379 1.172253 0.023872 -0.559130 0.282482 1.296803 1.035769
12.300000 0.378989 -0.109774 0.083839 -0.008010 0.009977 -0.006685 1.124981 0.059607 -0.009132 0.774666 0.013520 0.437716 0.276651 -0.130900 1.102170 0.168410 0.227224 0.741362 0.012939 0.380137 0.038330 -0.130900 -0.973178 0.027941 0.291521 1.451853 -0.135086 0.631258 0.739978 1.199801 0.080500 -0.590489 0.277816 1.330924 1.044178
12.316667 0.384914 -0.120010 0.081135 -0.008157 0.010048 -0.006710 1.113264 0.069015 -0.013416 0.755599 0.013188 0.395024 0.266799 -0.130900 1.096679 0.155976 0.219826 0.737659 0.012875 0.332540 0.004951 -0.130900 -0.961699 0.039046 0.275313 1.497795 -0.125920 0.619919 0.741177 1.185609 0.153749 -0.609967 0.275233 1.359024 1.052809
12.333333 0.389965 -0.128582 0.079492 -0.008136 0.010055 -0.006715 1.107929 0.073243 -0.024675 0.749144 0.013075 0.354106 0.230277 -0.130900 1.090604 0.149146 0.219643 0.733680 0.012805 0.282554 -0.037465 -0.130900 -0.950274 0.054004 0.263349 1.568507 -0.156758 0.702110 0.766863 1.208993 0.246636 -0.625352 0.309809 1.361457 1.066807
